HIERARCHY
ROOT Beta:Hips
{
	OFFSET 0.00 0.00 0.00
	CHANNELS 6 Xposition Yposition Zposition Yrotation Xrotation Zrotation
	JOINT Beta:Spine
	{
		OFFSET	0.0000	9.2263	1.5771
		CHANNELS 3 Xrotation Yrotation Zrotation
		JOINT Beta:Spine1
		{
			OFFSET	0.0000	16.2540	-0.1656
			CHANNELS 3 Xrotation Yrotation Zrotation
			JOINT Beta:Spine2
			{
				OFFSET	0.0000	13.6396	-1.2923
				CHANNELS 3 Xrotation Yrotation Zrotation
				JOINT Beta:Neck
				{
					OFFSET	0.0000	13.8774	-4.3542
					CHANNELS 3 Xrotation Yrotation Zrotation
					JOINT Beta:Neck1
					{
						OFFSET	0.0000	4.3400	0.9269
						CHANNELS 3 Xrotation Yrotation Zrotation
						JOINT Beta:Head
						{
							OFFSET	0.0000	4.0266	0.8585
							CHANNELS 3 Xrotation Yrotation Zrotation
							End Site
							{
								OFFSET 0.0000 23.0297 0.1231
							}
						}
					}
				}
				JOINT Beta:LeftShoulder
				{
					OFFSET	6.1442	10.1870	-3.7932
					CHANNELS 3 Zrotation Xrotation Yrotation
					JOINT Beta:LeftArm
					{
						OFFSET	12.3191	-1.1130	-1.7935
						CHANNELS 3 Zrotation Xrotation Yrotation
						JOINT Beta:LeftForeArm
						{
							OFFSET	27.6870	0.0000	0.0000
							CHANNELS 3 Xrotation Zrotation Yrotation
							JOINT Beta:LeftHand
							{
								OFFSET	27.8738	0.0000	0.0000
								CHANNELS 3 Zrotation Yrotation Xrotation
								JOINT Beta:LeftHandThumb1
								{
									OFFSET	2.3785	-1.0029	2.6209
									CHANNELS 3 Zrotation Xrotation Yrotation
									JOINT Beta:LeftHandThumb2
									{
										OFFSET	3.3624	-1.0029	2.8398
										CHANNELS 3 Zrotation Xrotation Yrotation
										JOINT Beta:LeftHandThumb3
										{
											OFFSET	4.5018	-1.3445	2.1783
											CHANNELS 3 Zrotation Xrotation Yrotation
											End Site
											{
												OFFSET 2.6000 -1.0000 1.0000
											}
										}
									}
								}
								JOINT Beta:LeftHandMiddle1
								{
									OFFSET	10.4639	0.6148	0.4298
									CHANNELS 3 Zrotation Xrotation Yrotation
									JOINT Beta:LeftHandMiddle2
									{
										OFFSET	5.7921	0.0000	0.0000
										CHANNELS 3 Zrotation Xrotation Yrotation
										JOINT Beta:LeftHandMiddle3
										{
											OFFSET	3.7132	0.0000	0.0000
											CHANNELS 3 Zrotation Xrotation Yrotation
											End Site
											{
												OFFSET 2.3000 0.0000 0.0000
											}
										}
									}
								}
								JOINT Beta:LeftHandIndex1
								{
									OFFSET	10.3945	0.6148	2.7055
									CHANNELS 3 Zrotation Xrotation Yrotation
									JOINT Beta:LeftHandIndex2
									{
										OFFSET	5.5493	0.0000	0.0000
										CHANNELS 3 Zrotation Xrotation Yrotation
										JOINT Beta:LeftHandIndex3
										{
											OFFSET	3.3911	0.0000	0.0000
											CHANNELS 3 Zrotation Xrotation Yrotation
											End Site
											{
												OFFSET 2.5000 0.0000 0.0000
											}
										}
									}
								}
								JOINT Beta:LeftHandRing1
								{
									OFFSET	10.3252	0.3211	-1.8755
									CHANNELS 3 Zrotation Xrotation Yrotation
									JOINT Beta:LeftHandRing2
									{
										OFFSET	5.4452	0.0000	0.0000
										CHANNELS 3 Zrotation Xrotation Yrotation
										JOINT Beta:LeftHandRing3
										{
											OFFSET	3.7132	0.0000	0.0000
											CHANNELS 3 Zrotation Xrotation Yrotation
											End Site
											{
												OFFSET 2.0000 0.0000 0.0000
											}
										}
									}
								}
								JOINT Beta:LeftHandPinky1
								{
									OFFSET	10.0130	-0.0783	-3.9671
									CHANNELS 3 Zrotation Xrotation Yrotation
									JOINT Beta:LeftHandPinky2
									{
										OFFSET	3.6763	0.0000	0.0000
										CHANNELS 3 Zrotation Xrotation Yrotation
										JOINT Beta:LeftHandPinky3
										{
											OFFSET	2.8113	0.0000	0.0000
											CHANNELS 3 Zrotation Xrotation Yrotation
											End Site
											{
												OFFSET 2.9000 0.0000 0.0000
											}
										}
									}
								}
							}
						}
					}
				}
				JOINT Beta:RightShoulder
				{
					OFFSET	-6.1402	10.1870	-3.7932
					CHANNELS 3 Zrotation Xrotation Yrotation
					JOINT Beta:RightArm
					{
						OFFSET	-12.3231	-1.1130	-1.7935
						CHANNELS 3 Zrotation Xrotation Yrotation
						JOINT Beta:RightForeArm
						{
							OFFSET	-27.6870	0.0000	0.0000
							CHANNELS 3 Xrotation Zrotation Yrotation
							JOINT Beta:RightHand
							{
								OFFSET	-27.8738	0.0000	0.0000
								CHANNELS 3 Zrotation Yrotation Xrotation
								JOINT Beta:RightHandThumb1
								{
									OFFSET	-2.5178	-0.9367	2.5137
									CHANNELS 3 Zrotation Xrotation Yrotation
									JOINT Beta:RightHandThumb2
									{
										OFFSET	-3.2638	-1.0870	2.9669
										CHANNELS 3 Zrotation Xrotation Yrotation
										JOINT Beta:RightHandThumb3
										{
											OFFSET	-4.4165	-1.3703	2.1350
											CHANNELS 3 Zrotation Xrotation Yrotation
											End Site
											{
												OFFSET -2.6000 -1.0000 1.0000
											}
										}
									}
								}
								JOINT Beta:RightHandIndex1
								{
									OFFSET	-10.4665	0.4896	2.7120
									CHANNELS 3 Zrotation Xrotation Yrotation
									JOINT Beta:RightHandIndex2
									{
										OFFSET	-5.3768	0.0000	0.0000
										CHANNELS 3 Zrotation Xrotation Yrotation
										JOINT Beta:RightHandIndex3
										{
											OFFSET	-3.3855	0.0000	0.0000
											CHANNELS 3 Zrotation Xrotation Yrotation
											End Site
											{
												OFFSET -2.6000 0.0000 0.0000
											}
										}
									}
								}
								JOINT Beta:RightHandMiddle1
								{
									OFFSET	-10.7596	0.4896	0.4278
									CHANNELS 3 Zrotation Xrotation Yrotation
									JOINT Beta:RightHandMiddle2
									{
										OFFSET	-5.6168	0.0000	0.0000
										CHANNELS 3 Zrotation Xrotation Yrotation
										JOINT Beta:RightHandMiddle3
										{
											OFFSET	-3.7364	0.0000	0.0000
											CHANNELS 3 Zrotation Xrotation Yrotation
											End Site
											{
												OFFSET -2.3000 0.0000 0.0000
											}
										}
									}
								}
								JOINT Beta:RightHandRing1
								{
									OFFSET	-10.4702	0.3879	-1.9363
									CHANNELS 3 Zrotation Xrotation Yrotation
									JOINT Beta:RightHandRing2
									{
										OFFSET	-5.4013	0.0000	0.0000
										CHANNELS 3 Zrotation Xrotation Yrotation
										JOINT Beta:RightHandRing3
										{
											OFFSET	-3.3916	0.0000	0.0000
											CHANNELS 3 Zrotation Xrotation Yrotation
											End Site
											{
												OFFSET -2.2000 0.0000 0.0000
											}
										}
									}
								}
								JOINT Beta:RightHandPinky1
								{
									OFFSET	-9.9715	-0.1191	-3.9540
									CHANNELS 3 Zrotation Xrotation Yrotation
									JOINT Beta:RightHandPinky2
									{
										OFFSET	-3.6528	0.0000	0.0000
										CHANNELS 3 Zrotation Xrotation Yrotation
										JOINT Beta:RightHandPinky3
										{
											OFFSET	-2.7820	0.0000	0.0000
											CHANNELS 3 Zrotation Xrotation Yrotation
											End Site
											{
												OFFSET -2.9000 0.0000 0.0000
											}
										}
									}
								}
							}
						}
					}
				}
			}
		}
	}
	JOINT Beta:LeftUpLeg
	{
		OFFSET	9.6338	-3.2733	0.0000
		CHANNELS 3 Xrotation Yrotation Zrotation
		JOINT Beta:LeftLeg
		{
			OFFSET	0.0000	-41.7300	-1.7300
			CHANNELS 3 Xrotation Yrotation Zrotation
			JOINT Beta:LeftFoot
			{
				OFFSET	0.0126	-39.1900	-0.8477
				CHANNELS 3 Xrotation Yrotation Zrotation
				JOINT Beta:LeftToeBase
				{
					OFFSET	-0.1833	-12.1931	8.2823
					CHANNELS 3 Xrotation Yrotation Zrotation
					End Site
					{
						OFFSET 0.0000 0.0000 10.1681
					}
				}
			}
		}
	}
	JOINT Beta:RightUpLeg
	{
		OFFSET	-9.6338	-3.2733	0.0000
		CHANNELS 3 Xrotation Yrotation Zrotation
		JOINT Beta:RightLeg
		{
			OFFSET	0.0000	-41.7300	-1.7300
			CHANNELS 3 Xrotation Yrotation Zrotation
			JOINT Beta:RightFoot
			{
				OFFSET	0.0126	-39.1900	-0.8477
				CHANNELS 3 Xrotation Yrotation Zrotation
				JOINT Beta:RightToeBase
				{
					OFFSET	-0.1833	-12.1931	8.2823
					CHANNELS 3 Xrotation Yrotation Zrotation
					End Site
					{
						OFFSET 0.0032 0.0000 10.1681
					}
				}
			}
		}
	}
}
MOTION
Frames: 7
Frame Time: 0.0333333
138.7434 86.6242 -1.7149 81.3122 20.5435 -0.0214 9.5657 -11.1746 3.9941 3.6165 -4.7199 1.6459 3.6126 -4.7022 1.7060 -2.6309 -6.6794 -1.9988 -0.0000 0.0000 -0.0000 -15.7165 -48.0081 18.5960 -12.7449 3.8450 -15.5533 -46.8876 -5.6627 1.9160 0.0000 0.0000 -74.0706 -21.0497 36.5872 17.6080 -8.6451 5.6595 9.6089 14.0357 -1.1934 8.5917 6.9009 -10.0000 -26.2658 -39.6418 -0.0000 -6.4380 -43.6265 -0.0000 -0.0000 0.9281 0.0000 0.0000 -30.2380 0.0006 -7.8701 -20.1999 0.0000 -0.0000 -3.1778 -0.0000 -0.0000 -42.3177 -0.0000 -2.4503 -63.4053 0.0000 0.0000 -10.6054 0.0000 -0.0000 -54.4563 -0.3808 -1.4990 -81.6485 0.0000 -0.0000 -30.9493 0.0000 -0.0000 11.9754 -0.0562 -3.4677 47.9256 11.6227 -7.9525 0.0000 0.0000 55.1746 -1.6136 10.4219 31.5130 10.9464 2.9053 4.8101 -14.0357 -1.1934 4.9131 -6.9009 -10.0000 35.9093 -1.9457 -0.0005 7.0793 2.3716 -0.0000 -0.0000 -12.4766 -0.0000 0.0000 4.9044 -0.0000 2.4102 8.4523 0.0000 0.0000 -13.6917 -0.0000 -0.0000 3.3223 0.0000 -6.4525 24.3578 -0.0000 -0.0000 -11.7853 0.0000 0.0000 6.8048 -1.3657 -16.8572 33.9933 -0.0000 -0.0000 -11.9661 0.0000 -0.0000 -40.0945 7.5976 -5.3607 53.1334 -5.2836 -0.7765 -32.3772 -2.9526 11.1742 -9.8296 0.0000 0.0000 -56.5533 5.3355 -1.6716 116.5672 -1.3178 1.5147 -4.9315 0.5066 -4.4037 -8.2717 0.0000 -0.0000 
152.4505 87.2338 -1.4582 81.5743 21.1320 -2.5960 10.0718 -12.9744 7.3487 3.5746 -5.8155 2.4804 3.5632 -5.7909 2.5549 -2.2793 -5.6883 -2.8257 -0.0000 0.0000 -0.0000 -15.8471 -45.2146 17.4426 -11.3068 3.7036 -16.0719 -42.1327 -8.2021 -4.8323 -0.0000 -0.0006 -91.1230 -18.6368 39.2224 15.0614 -8.6200 5.6868 9.7576 14.0357 -1.1935 8.7309 6.9009 -10.0000 -26.1663 -39.8065 0.0000 -6.4464 -43.7935 0.0000 -0.0000 0.7979 0.0000 -0.0000 -30.3771 -0.0002 -7.8769 -20.3424 0.0000 0.0000 -3.3183 0.0000 -0.0000 -42.5257 0.0000 -2.4537 -63.6137 -0.0000 -0.0000 -10.8136 0.0000 0.0000 -54.7536 -0.3741 -1.5035 -81.9459 0.0000 -0.0000 -31.2466 -0.0000 -0.0000 9.7561 -0.5886 -6.6561 51.1625 11.5240 -16.2159 -0.0000 -0.0000 48.9362 -2.9439 17.2447 35.9290 10.6840 3.1564 3.3513 -14.0357 -1.1935 3.5495 -6.9009 -10.0000 34.9356 1.4136 0.0007 7.3479 5.2310 -0.0000 0.0000 -9.7295 0.0000 0.0000 8.5017 -0.0000 2.7902 12.1202 -0.0000 0.0000 -11.6444 -0.0000 -0.0000 7.3520 -0.0000 -6.0195 28.4225 0.0000 -0.0000 -8.3685 -0.0000 -0.0000 11.7336 -1.2978 -15.9912 38.9213 -0.0000 -0.0000 -7.2164 0.0000 -0.0000 -24.8002 7.1023 -5.3675 41.3097 -4.5657 1.3834 -36.3053 -5.0632 9.9402 -9.8296 0.0000 0.0000 -71.3397 0.6099 0.5838 113.6581 0.6793 1.6164 -13.3520 1.0187 -4.9623 -6.6673 -0.0000 0.0000 
167.0893 88.3690 -1.2845 80.9305 20.6310 -5.6756 10.5587 -14.8623 11.3484 3.4489 -6.8489 3.2898 3.4153 -6.8263 3.3686 -1.3295 -4.5696 -3.5502 -0.0000 0.0000 -0.0000 -15.5412 -41.8690 16.3773 -9.6887 3.4321 -16.0598 -38.8458 -12.7067 -6.8558 -0.0000 -0.0000 -107.6899 -13.5252 37.9524 21.2219 -8.6233 5.6836 9.7393 14.0356 -1.1935 8.7137 6.9009 -10.0000 -26.1786 -39.7862 -0.0000 -6.4453 -43.7729 -0.0000 -0.0000 0.8140 -0.0000 0.0000 -30.3599 -0.0001 -7.8760 -20.3248 0.0000 0.0000 -3.3010 -0.0000 -0.0000 -42.5001 -0.0000 -2.4532 -63.5880 -0.0000 0.0000 -10.7879 0.0000 0.0000 -54.7169 -0.3749 -1.5029 -81.9093 0.0000 0.0000 -31.2100 0.0000 -0.0000 5.3588 -1.0014 -9.8060 54.8024 12.3710 -25.7710 -0.0000 0.0000 49.0102 -6.3215 22.6418 36.8829 10.3791 3.4639 1.6130 -14.0357 -1.1935 1.9239 -6.9009 -10.0000 33.7747 6.0379 0.0004 7.6587 8.8190 -0.0000 -0.0000 -6.3168 -0.0000 0.0000 13.4108 -0.0000 3.3282 17.1181 -0.0000 -0.0000 -8.7700 0.0000 0.0000 12.7770 -0.0000 -5.2471 33.8869 0.0000 0.0000 -4.1376 0.0000 -0.0000 18.2298 -1.1946 -14.4856 45.4167 0.0000 -0.0000 -1.0788 -0.0000 -0.0000 -1.6532 7.8570 -6.1342 12.7230 -2.7399 4.3990 -20.5998 -5.6684 7.2161 -19.3259 0.0000 0.0000 -80.3206 -4.4108 3.5240 101.0542 0.1447 1.9078 -17.4505 1.4107 -5.8579 -6.8006 -0.0000 0.0000 
181.7455 88.7679 -1.1654 78.9407 20.3535 -8.5533 10.8888 -16.8763 13.6679 3.3493 -7.5775 3.6767 3.2938 -7.5599 3.7603 -0.2676 -3.6158 -3.7580 -0.0000 0.0000 -0.0000 -14.7724 -38.7484 16.3356 -8.6223 3.0922 -15.1524 -36.2777 -19.9673 -2.8185 0.0000 -0.0000 -122.4390 -5.3031 29.0012 30.5603 -8.6354 5.6750 9.6819 14.0357 -1.1934 8.6602 6.9009 -10.0000 -26.2169 -39.7230 0.0000 -6.4405 -43.7087 0.0000 -0.0000 0.8641 -0.0000 0.0000 -30.3065 0.0003 -7.8720 -20.2700 0.0000 0.0000 -3.2469 -0.0000 -0.0000 -42.4201 0.0000 -2.4509 -63.5078 0.0000 0.0000 -10.7078 0.0000 0.0000 -54.6025 -0.3770 -1.5000 -81.7948 0.0000 0.0000 -31.0956 -0.0000 0.0000 0.3488 -1.1459 -11.6172 58.2172 12.4818 -34.1544 0.0000 0.0000 53.3515 -8.3382 22.4250 35.9174 10.0559 3.8100 -0.2861 -14.0357 -1.1934 0.1467 -6.9009 -10.0000 32.5056 11.5545 -0.0002 7.9536 12.8702 0.0000 -0.0000 -2.5178 -0.0000 0.0000 19.2455 -0.0000 3.9466 23.0487 0.0000 -0.0000 -5.4153 0.0000 -0.0000 19.1764 0.0000 -4.2261 40.3198 -0.0000 0.0000 0.5449 -0.0000 -0.0000 25.7928 -1.0545 -12.5168 52.9796 0.0000 -0.0000 5.9848 0.0000 0.0000 8.8825 10.4896 -5.0588 1.6433 -3.6523 6.3184 10.8482 -5.1022 -4.0369 -32.8040 -0.0128 1.3375 -84.0780 -8.4122 7.0677 82.3909 3.9738 2.4489 -17.8594 0.2053 -2.1239 -4.2072 0.0000 -0.0000 
197.0512 89.2535 -1.3997 77.4324 19.7028 -7.4016 10.3984 -18.6585 12.9043 3.1369 -7.8750 3.5769 3.0818 -7.8517 3.6797 0.6307 -3.0800 -3.6916 -0.0000 0.0000 -0.0000 -13.3612 -36.7864 16.9556 -8.2911 2.8093 -13.8672 -33.7486 -28.6701 4.9577 -0.0000 -0.0000 -133.3513 1.8286 14.3638 38.4700 -8.6088 5.7177 9.8805 14.0357 -1.1934 8.8466 6.9009 -10.0000 -26.0837 -39.9439 0.0000 -6.4469 -43.9323 0.0000 0.0000 0.6898 -0.0000 0.0000 -30.4931 -0.0001 -7.8769 -20.4608 -0.0000 -0.0000 -3.4350 0.0000 -0.0000 -42.6986 -0.0000 -2.4526 -63.7869 0.0000 0.0000 -10.9865 -0.0000 0.0000 -55.0005 -0.3663 -1.5027 -82.1929 0.0000 -0.0000 -31.4937 0.0000 0.0000 -3.3454 -1.1110 -11.7341 60.2487 11.2759 -39.2635 0.0000 -0.0000 57.2903 -6.9644 19.0984 36.5234 9.7371 4.1753 -2.2296 -14.0357 -1.1934 -1.6732 -6.9009 -10.0000 31.2061 17.6934 -0.0002 8.1878 17.1552 0.0000 -0.0000 1.4451 0.0000 0.0000 25.7208 -0.0000 4.5942 29.6203 0.0000 0.0000 -1.8279 -0.0000 -0.0000 26.2315 0.0000 -3.0000 47.3970 0.0000 -0.0000 5.4088 0.0000 -0.0000 34.0285 -0.8810 -10.0865 61.2160 -0.0000 -0.0000 13.5947 0.0000 -0.0000 10.6252 10.5750 -8.4840 15.4441 -6.3867 9.3197 11.6191 -2.6556 -12.2408 -6.1660 0.0000 -0.0000 -79.9390 -6.5761 10.4849 56.2760 5.0754 1.3858 -13.1027 -2.8968 8.5094 -7.4860 -0.0000 -0.0000 
213.9669 88.6894 -1.4663 76.5184 18.8974 -4.1385 9.1950 -19.3615 10.1311 2.8126 -7.7879 3.2700 2.7800 -7.7482 3.4008 1.1460 -3.0055 -3.8528 -0.0000 0.0000 -0.0000 -11.6625 -36.3978 17.2937 -8.5470 2.6955 -13.0094 -31.9639 -33.8373 11.7441 -0.0000 0.0000 -139.8284 4.3075 3.3303 45.7259 -8.5822 5.7384 10.0119 14.0357 -1.1935 8.9693 6.9009 -10.0000 -25.9961 -40.0890 -0.0000 -6.4572 -44.0794 -0.0000 0.0000 0.5750 0.0000 -0.0000 -30.6155 -0.0009 -7.8854 -20.5864 0.0000 -0.0000 -3.5588 -0.0000 0.0000 -42.8819 -0.0000 -2.4574 -63.9705 -0.0000 0.0000 -11.1700 0.0000 -0.0000 -55.2626 -0.3611 -1.5087 -82.4550 0.0000 0.0000 -31.7557 0.0000 -0.0000 -4.8600 -1.0917 -10.9358 60.8611 9.8210 -40.7216 0.0000 0.0000 58.9791 -3.5651 15.7842 38.8593 9.4375 4.5430 -4.1293 -14.0357 -1.1934 -3.4531 -6.9009 -10.0000 29.9351 24.0712 -0.0000 8.3311 21.4547 0.0000 -0.0000 5.3857 0.0000 0.0000 32.4402 -0.0000 5.2080 36.4321 0.0000 0.0000 1.8146 -0.0000 0.0000 33.5207 -0.0000 -1.6763 54.6953 0.0000 0.0000 10.2360 0.0000 0.0000 42.4598 -0.6849 -7.3833 69.6487 0.0000 -0.0000 21.3264 -0.0000 0.0000 14.0506 16.4648 -10.6361 32.7466 -9.7386 6.2251 7.0539 -1.9284 -14.0176 -7.6835 -0.0000 0.0000 -71.7878 -5.6394 9.9911 33.9533 9.9338 1.4873 -10.9108 -4.8721 20.2311 -7.0595 -0.0000 0.0000 
230.7528 88.4463 -1.4077 74.4534 17.4561 -2.7392 8.3331 -18.1676 7.7909 2.6536 -7.3536 3.0588 2.6421 -7.3019 3.2014 0.9813 -3.4182 -4.1636 -0.0000 0.0000 -0.0000 -10.7750 -37.7045 16.8514 -9.1878 2.7671 -12.8741 -32.7726 -30.0656 14.5818 0.0000 -0.0000 -141.5207 5.9658 3.4069 53.9256 -8.7367 5.4889 8.8488 14.0357 -1.1934 7.8778 6.9009 -10.0000 -26.7756 -38.7953 -0.0000 -6.4194 -42.7703 0.0000 0.0000 1.5955 -0.0000 0.0000 -29.5233 0.0021 -7.8566 -19.4693 0.0000 -0.0000 -2.4575 0.0000 0.0000 -41.2510 0.0000 -2.4476 -62.3368 -0.0000 0.0000 -9.5382 -0.0000 0.0000 -52.9326 -0.4233 -1.4936 -80.1242 0.0000 0.0000 -29.4249 0.0000 0.0000 -3.8153 -1.1335 -9.7854 60.7759 8.7502 -39.5465 -0.0000 -0.0000 60.1598 -1.1327 12.3473 40.2324 9.1685 4.8961 -5.9061 -14.0357 -1.1934 -5.1187 -6.9009 -10.0000 28.7458 30.2571 0.0001 8.3726 25.5443 -0.0000 -0.0000 9.1142 0.0000 -0.0000 38.9589 0.0000 5.7326 43.0344 0.0000 -0.0000 5.3230 -0.0000 0.0000 40.5760 0.0000 -0.3811 61.7473 0.0000 -0.0000 14.7989 -0.0000 0.0000 50.5705 -0.4822 -4.6829 77.7616 -0.0000 -0.0000 28.7312 0.0000 -0.0000 14.7678 22.9806 -8.6495 49.6223 -5.7999 0.6425 11.7389 -2.2163 -8.5493 -8.3388 0.0000 0.0000 -57.3718 -5.1718 9.0566 15.1249 7.0421 3.8059 -3.0556 0.4873 25.7305 -7.7653 0.0000 0.0000 
